# xmcd CD database file
#
# Track frame offsets:
#	151
#	13978
#	27704
#	43424
#	56668
#	73024
#	86972
#	101673
#	112309
#	126410
#	138686
#	148584
#	160603
#	175625
#
# Disc length: 2601 seconds
#
# Revision: 0
# Processed by: cddbd v1.4PL0 Copyright (c) Steve Scherf et al.
# Submitted via: CDex 1.50
#
DISCID=dd0a270e
DTITLE=Louis Armstrong - Georgia On My Mind
DYEAR=1900
DGENRE=Jazz
TTITLE0=Georgia On My Mind
TTITLE1=C'est Si Воn 
TTITLE2=HeLLo Brother
TTITLE3=Takes Two То Tango 
TTITLE4=Go Down Moses
TTITLE5=The Ноте Fire
TTITLE6=ChLoe
TTITLE7=The Dummy Song
TTITLE8=Kiss Of Fire 
TTITLE9=La Cucaracha
TTITLE10=I StiLL Get JeaLous
TTITLE11=This BLack Cat Has 9 Lives
TTITLE12=Му Оnе And OnLy Love 
TTITLE13=Give Реасе А Chance
EXTD=
EXTT0=
EXTT1=
EXTT2=
EXTT3=
EXTT4=
EXTT5=
EXTT6=
EXTT7=
EXTT8=
EXTT9=
EXTT10=
EXTT11=
EXTT12=
EXTT13=
PLAYORDER=
